<svg width="1631" height="1080" viewBox="200 380 1200 320" fill="none" xmlns="http://www.w3.org/2000/svg">
<path fill-rule="evenodd" clip-rule="evenodd" d="M431.887 568.276C431.283 566.009 429.517 564.237 427.252 563.626L370.608 548.35C368.344 547.739 365.926 548.383 364.265 550.038L322.713 591.455C321.052 593.111 320.4 595.527 321.003 597.794L337.071 658.15L381.103 614.117C382.761 612.459 385.179 611.811 387.444 612.418L447.954 628.632L431.887 568.276Z" fill="#00BD7D"/>
<path d="M397.374 674.413C399.638 675.024 402.057 674.38 403.718 672.724L447.954 628.632L387.444 612.418C385.179 611.811 382.761 612.459 381.103 614.117L337.071 658.15L397.374 674.413Z" fill="#00774F"/>
<path fill-rule="evenodd" clip-rule="evenodd" d="M349.105 485.493C348.501 483.227 346.735 481.454 344.47 480.843L287.826 465.567C285.562 464.956 283.143 465.6 281.482 467.256L239.93 508.673C238.269 510.328 237.618 512.744 238.221 515.011L254.288 575.367L298.321 531.334C299.979 529.676 302.396 529.028 304.662 529.635L365.172 545.849L349.105 485.493Z" fill="#00BD7D"/>
<path d="M314.592 591.63C316.856 592.241 319.274 591.597 320.936 589.942L365.172 545.849L304.662 529.635C302.396 529.028 299.979 529.676 298.321 531.334L254.288 575.367L314.592 591.63Z" fill="#00774F"/>
<path fill-rule="evenodd" clip-rule="evenodd" d="M397.741 433.943L353.505 478.035C351.844 479.691 351.192 482.107 351.796 484.374L366.888 541.067C367.491 543.334 369.258 545.106 371.522 545.717L428.166 560.993C430.431 561.604 432.849 560.96 434.51 559.304L478.746 515.212L418.597 499.095C416.332 498.488 414.562 496.718 413.955 494.453L397.741 433.943Z" fill="#00BD7D"/>
<path d="M413.955 494.453C414.562 496.718 416.332 498.488 418.597 499.095L478.746 515.212L462.679 454.856C462.076 452.589 460.309 450.817 458.045 450.206L397.741 433.943L413.955 494.453Z" fill="#00774F"/>
<path d="M279.262 586.978C280.218 586.025 281.611 585.654 282.914 586.006L315.524 594.801C316.828 595.152 317.845 596.173 318.192 597.477L326.881 630.116C327.228 631.42 326.853 632.811 325.897 633.765L301.975 657.608C301.019 658.561 299.627 658.932 298.323 658.58L265.713 649.786C264.41 649.434 263.393 648.414 263.045 647.109L254.357 614.471C254.009 613.166 254.385 611.775 255.341 610.822L279.262 586.978Z" fill="#00BD7D"/>
<path d="M459.794 539.055C460.75 538.102 462.143 537.732 463.446 538.083L496.057 546.878C497.36 547.229 498.377 548.25 498.725 549.555L507.413 582.193C507.761 583.498 507.385 584.889 506.429 585.842L482.508 609.686C481.551 610.639 480.159 611.01 478.855 610.658L446.245 601.864C444.942 601.512 443.924 600.492 443.577 599.187L434.889 566.548C434.541 565.243 434.916 563.852 435.873 562.899L459.794 539.055Z" fill="#00BD7D"/>
<path d="M327.404 407.103C328.36 406.149 329.752 405.779 331.056 406.13L363.666 414.925C364.97 415.277 365.987 416.297 366.334 417.602L375.023 450.241C375.37 451.545 374.995 452.936 374.038 453.89L350.117 477.733C349.161 478.687 347.768 479.057 346.465 478.706L313.855 469.911C312.551 469.559 311.534 468.539 311.187 467.234L302.498 434.596C302.151 433.291 302.526 431.9 303.482 430.947L327.404 407.103Z" fill="#00BD7D"/>
<path d="M560.136 588.32V494.527H577.554V573.581H626.595V588.32H560.136ZM679.369 589.66C666.506 589.66 656.412 586.042 649.087 578.807C641.852 571.571 638.234 561.12 638.234 547.453V494.527H655.653V546.783C655.653 556.43 657.707 563.442 661.816 567.819C666.015 572.196 671.91 574.385 679.503 574.385C687.096 574.385 692.947 572.196 697.056 567.819C701.165 563.442 703.219 556.43 703.219 546.783V494.527H720.37V547.453C720.37 561.12 716.707 571.571 709.383 578.807C702.147 586.042 692.143 589.66 679.369 589.66ZM732.067 588.32L771.594 533.92V547.051L733.943 494.527H753.639L781.643 533.384L773.604 533.518L801.34 494.527H820.232L782.849 546.113V533.518L822.644 588.32H802.545L773.068 547.051H780.973L751.897 588.32H732.067ZM849.298 533.518H895.926V547.855H849.298V533.518ZM850.637 573.715H903.563V588.32H833.219V494.527H901.688V509.132H850.637V573.715ZM922.982 588.32V494.527H937.318L996.14 566.747H989.039V494.527H1006.32V588.32H991.986L933.165 516.099H940.266V588.32H922.982ZM1134.41 494.527H1151.83V588.32H1134.41V494.527ZM1085.91 588.32H1068.49V494.527H1085.91V588.32ZM1135.75 548.123H1084.43V533.25H1135.75V548.123ZM1176.96 588.32V494.527H1194.38V588.32H1176.96ZM1246.83 588.32L1205.83 494.527H1224.72L1261.3 579.342H1250.45L1287.43 494.527H1304.85L1263.98 588.32H1246.83ZM1330.82 533.518H1377.45V547.855H1330.82V533.518ZM1332.16 573.715H1385.09V588.32H1314.75V494.527H1383.21V509.132H1332.16V573.715Z" fill="white"/>
</svg>
